<?xml version="1.0" encoding="UTF-8"?>
<svg version="1.1" xmlns="http://www.w3.org/2000/svg" width="138" height="98">
<path d="M0 0 C0.93783829 -0.0071553 1.87567657 -0.01431061 2.8419342 -0.02168274 C3.86900482 -0.02437164 4.89607544 -0.02706055 5.95426941 -0.02983093 C7.03746964 -0.03640213 8.12066986 -0.04297333 9.23669434 -0.04974365 C12.82769334 -0.06948348 16.41865054 -0.08114007 20.00968933 -0.09111023 C21.23509619 -0.09518576 22.46050304 -0.09926128 23.72304344 -0.10346031 C29.53867357 -0.12217136 35.35428723 -0.13673735 41.16994172 -0.14507228 C47.20949598 -0.15387179 53.2487991 -0.17317386 59.28825378 -0.20951843 C65.76915004 -0.2479002 72.2498196 -0.2667543 78.73082542 -0.27127647 C81.20158313 -0.27615219 83.67233706 -0.28779401 86.14303017 -0.30631447 C89.59990972 -0.33061922 93.05592461 -0.32975639 96.51286316 -0.32279968 C98.04436005 -0.34201477 98.04436005 -0.34201477 99.60679626 -0.36161804 C105.39878008 -0.31911717 108.87800516 0.18939303 113.42765808 4.14717102 C118.9780943 10.70735611 118.0092913 18.70472759 117.95890808 26.86201477 C117.96160664 28.40226486 117.96549208 29.94251328 117.97050476 31.48275757 C117.97638458 34.70301106 117.96788765 37.92281914 117.94914246 41.14302063 C117.92637244 45.25311033 117.93947232 49.36215392 117.96343231 53.47220516 C117.97794824 56.6508764 117.97325766 59.8293033 117.96292114 63.00798225 C117.96026881 64.52251372 117.9634706 66.03706799 117.97283936 67.5515728 C118.05099488 83.73686459 118.05099488 83.73686459 113.42765808 89.14717102 C107.55719975 93.42899544 101.67070963 93.72299607 94.62467957 93.66474915 C93.57161621 93.67175842 92.51855286 93.6787677 91.43357849 93.68598938 C87.97169704 93.7035159 84.5106408 93.69196582 81.04875183 93.67842102 C78.63314661 93.68111725 76.21754244 93.68500076 73.80194092 93.6900177 C68.7474684 93.69590537 63.69327923 93.68737222 58.63883972 93.6686554 C52.16685938 93.64585455 45.69554217 93.65900147 39.22358608 93.68294525 C34.23838318 93.69741227 29.25333702 93.69279319 24.26812935 93.68243408 C21.88195275 93.67976996 19.49576183 93.68302546 17.10960197 93.69235229 C13.77309941 93.70253363 10.43766524 93.68699367 7.10124207 93.66474915 C6.11974686 93.67284607 5.13825165 93.68094299 4.12701416 93.68928528 C-1.97459738 93.61408688 -5.57713693 92.71229293 -10.57234192 89.14717102 C-15.0316028 84.33586323 -15.69736966 80.92070451 -15.73347473 74.47602844 C-15.73843964 73.80247818 -15.74340454 73.12892792 -15.7485199 72.43496704 C-15.76311981 70.2075142 -15.76994026 67.9801326 -15.77546692 65.75263977 C-15.78122065 64.20188394 -15.78697836 62.65112812 -15.79273987 61.10037231 C-15.80324402 57.84798349 -15.80909035 54.59561934 -15.81257629 51.34321594 C-15.81805641 47.18370793 -15.84207634 43.02452802 -15.87054825 38.8651228 C-15.88920981 35.66085876 -15.89438212 32.45667317 -15.89591217 29.25235939 C-15.89893186 27.71941143 -15.9069373 26.18646462 -15.92009735 24.65357018 C-15.9372303 22.50429507 -15.93526036 20.35581365 -15.92878723 18.20649719 C-15.93425568 16.3747419 -15.93425568 16.3747419 -15.93983459 14.50598145 C-15.39110518 9.49070301 -13.76284923 6.24839028 -10.07234192 2.83467102 C-6.6282438 0.50990479 -4.05656381 0.02126113 0 0 Z M-10.57234192 7.14717102 C-9.57234192 9.14717102 -9.57234192 9.14717102 -9.57234192 9.14717102 Z M111.42765808 7.14717102 C112.42765808 9.14717102 112.42765808 9.14717102 112.42765808 9.14717102 Z M-11.57234192 9.14717102 C-10.57234192 11.14717102 -10.57234192 11.14717102 -10.57234192 11.14717102 Z M112.42765808 9.14717102 C113.42765808 11.14717102 113.42765808 11.14717102 113.42765808 11.14717102 Z M-12.57234192 11.14717102 C-12.57234192 34.24717102 -12.57234192 57.34717102 -12.57234192 81.14717102 C-12.24234192 81.14717102 -11.91234192 81.14717102 -11.57234192 81.14717102 C-11.57234192 58.04717102 -11.57234192 34.94717102 -11.57234192 11.14717102 C-11.90234192 11.14717102 -12.23234192 11.14717102 -12.57234192 11.14717102 Z M113.42765808 11.14717102 C113.42765808 34.24717102 113.42765808 57.34717102 113.42765808 81.14717102 C113.75765808 81.14717102 114.08765808 81.14717102 114.42765808 81.14717102 C114.42765808 58.04717102 114.42765808 34.94717102 114.42765808 11.14717102 C114.09765808 11.14717102 113.76765808 11.14717102 113.42765808 11.14717102 Z M-4.57234192 12.14717102 C-4.57234192 12.47717102 -4.57234192 12.80717102 -4.57234192 13.14717102 C5.65765808 13.47717102 15.88765808 13.80717102 26.42765808 14.14717102 C26.92265808 25.53217102 26.92265808 25.53217102 27.42765808 37.14717102 C16.53765808 36.81717102 5.64765808 36.48717102 -5.57234192 36.14717102 C-5.24234192 37.13717102 -4.91234192 38.12717102 -4.57234192 39.14717102 C5.98765808 38.81717102 16.54765808 38.48717102 27.42765808 38.14717102 C27.42765808 45.40717102 27.42765808 52.66717102 27.42765808 60.14717102 C16.86765808 60.14717102 6.30765808 60.14717102 -4.57234192 60.14717102 C-4.90234192 59.48717102 -5.23234192 58.82717102 -5.57234192 58.14717102 C-5.24234192 59.46717102 -4.91234192 60.78717102 -4.57234192 62.14717102 C5.98765808 61.81717102 16.54765808 61.48717102 27.42765808 61.14717102 C27.42765808 67.74717102 27.42765808 74.34717102 27.42765808 81.14717102 C17.19765808 81.14717102 6.96765808 81.14717102 -3.57234192 81.14717102 C-3.57234192 81.47717102 -3.57234192 81.80717102 -3.57234192 82.14717102 C6.98765808 82.14717102 17.54765808 82.14717102 28.42765808 82.14717102 C28.42765808 59.04717102 28.42765808 35.94717102 28.42765808 12.14717102 C17.53765808 12.14717102 6.64765808 12.14717102 -4.57234192 12.14717102 Z M33.42765808 12.14717102 C33.42765808 35.24717102 33.42765808 58.34717102 33.42765808 82.14717102 C44.97765808 82.14717102 56.52765808 82.14717102 68.42765808 82.14717102 C66.52534626 79.79401425 66.52534626 79.79401425 63.2631073 80.01191711 C61.9191455 80.05424279 60.57551074 80.10790172 59.23234558 80.17060852 C58.52490204 80.19563446 57.8174585 80.2206604 57.08857727 80.2464447 C54.82612089 80.32870392 52.56453002 80.42526792 50.30265808 80.52217102 C48.7701415 80.58040471 47.23758927 80.63770812 45.70500183 80.69404602 C41.94520379 80.83254346 38.18691575 80.99035869 34.42765808 81.14717102 C34.42765808 74.54717102 34.42765808 67.94717102 34.42765808 61.14717102 C45.31765808 61.14717102 56.20765808 61.14717102 67.42765808 61.14717102 C67.09765808 60.48717102 66.76765808 59.82717102 66.42765808 59.14717102 C50.58765808 59.64217102 50.58765808 59.64217102 34.42765808 60.14717102 C34.42765808 52.88717102 34.42765808 45.62717102 34.42765808 38.14717102 C50.76265808 38.64217102 50.76265808 38.64217102 67.42765808 39.14717102 C67.42765808 38.48717102 67.42765808 37.82717102 67.42765808 37.14717102 C56.53765808 37.14717102 45.64765808 37.14717102 34.42765808 37.14717102 C34.75765808 29.55717102 35.08765808 21.96717102 35.42765808 14.14717102 C37.71445496 14.17037415 40.00125183 14.19357727 42.35734558 14.21748352 C44.56811467 14.23307362 46.77887768 14.24522199 48.9896698 14.2570343 C50.52810907 14.2671022 52.06652915 14.28075748 53.60490417 14.29804993 C55.81409941 14.32226419 58.02304203 14.33364593 60.23234558 14.34248352 C61.26680313 14.35796738 61.26680313 14.35796738 62.32215881 14.37376404 C64.02566714 14.3741658 65.72851751 14.26908128 67.42765808 14.14717102 C68.08765808 13.48717102 68.74765808 12.82717102 69.42765808 12.14717102 C57.54765808 12.14717102 45.66765808 12.14717102 33.42765808 12.14717102 Z M72.42765808 12.14717102 C73.41765808 13.63217102 73.41765808 13.63217102 74.42765808 15.14717102 C74.42765808 14.48717102 74.42765808 13.82717102 74.42765808 13.14717102 C84.98765808 13.14717102 95.54765808 13.14717102 106.42765808 13.14717102 C106.42765808 12.81717102 106.42765808 12.48717102 106.42765808 12.14717102 C95.20765808 12.14717102 83.98765808 12.14717102 72.42765808 12.14717102 Z M-5.57234192 13.14717102 C-6.98811669 14.33141428 -6.98811669 14.33141428 -6.63484192 17.70967102 C-6.61421692 18.84404602 -6.59359192 19.97842102 -6.57234192 21.14717102 C-6.24234192 21.14717102 -5.91234192 21.14717102 -5.57234192 21.14717102 C-5.24234192 18.50717102 -4.91234192 15.86717102 -4.57234192 13.14717102 C-4.90234192 13.14717102 -5.23234192 13.14717102 -5.57234192 13.14717102 Z M106.42765808 13.14717102 C107.42765808 15.14717102 107.42765808 15.14717102 107.42765808 15.14717102 Z M67.42765808 15.14717102 C67.42765808 22.07717102 67.42765808 29.00717102 67.42765808 36.14717102 C67.75765808 36.14717102 68.08765808 36.14717102 68.42765808 36.14717102 C68.42765808 29.21717102 68.42765808 22.28717102 68.42765808 15.14717102 C68.09765808 15.14717102 67.76765808 15.14717102 67.42765808 15.14717102 Z M-6.57234192 23.14717102 C-5.57234192 27.14717102 -5.57234192 27.14717102 -5.57234192 27.14717102 Z M-6.57234192 30.14717102 C-5.57234192 34.14717102 -5.57234192 34.14717102 -5.57234192 34.14717102 Z M73.42765808 35.14717102 C73.42765808 36.79717102 73.42765808 38.44717102 73.42765808 40.14717102 C73.75765808 39.48717102 74.08765808 38.82717102 74.42765808 38.14717102 C90.76265808 38.64217102 90.76265808 38.64217102 107.42765808 39.14717102 C106.93265808 37.66217102 106.93265808 37.66217102 106.42765808 36.14717102 C90.58765808 36.64217102 90.58765808 36.64217102 74.42765808 37.14717102 C74.09765808 36.48717102 73.76765808 35.82717102 73.42765808 35.14717102 Z M-6.57234192 39.14717102 C-5.57234192 41.14717102 -5.57234192 41.14717102 -5.57234192 41.14717102 Z M67.42765808 40.14717102 C67.42765808 46.08717102 67.42765808 52.02717102 67.42765808 58.14717102 C67.75765808 58.14717102 68.08765808 58.14717102 68.42765808 58.14717102 C68.42765808 52.20717102 68.42765808 46.26717102 68.42765808 40.14717102 C68.09765808 40.14717102 67.76765808 40.14717102 67.42765808 40.14717102 Z M-6.57234192 45.14717102 C-5.57234192 47.14717102 -5.57234192 47.14717102 -5.57234192 47.14717102 Z M73.42765808 58.14717102 C73.75765808 59.46717102 74.08765808 60.78717102 74.42765808 62.14717102 C85.31765808 62.14717102 96.20765808 62.14717102 107.42765808 62.14717102 C106.93265808 60.16717102 106.93265808 60.16717102 106.42765808 58.14717102 C106.42765808 58.80717102 106.42765808 59.46717102 106.42765808 60.14717102 C95.86765808 60.14717102 85.30765808 60.14717102 74.42765808 60.14717102 C74.09765808 59.48717102 73.76765808 58.82717102 73.42765808 58.14717102 Z M67.42765808 62.14717102 C67.42765808 67.75717102 67.42765808 73.36717102 67.42765808 79.14717102 C67.75765808 79.14717102 68.08765808 79.14717102 68.42765808 79.14717102 C68.42765808 73.53717102 68.42765808 67.92717102 68.42765808 62.14717102 C68.09765808 62.14717102 67.76765808 62.14717102 67.42765808 62.14717102 Z M-6.57234192 64.14717102 C-5.57234192 66.14717102 -5.57234192 66.14717102 -5.57234192 66.14717102 Z M-6.57234192 75.14717102 C-5.57234192 79.14717102 -5.57234192 79.14717102 -5.57234192 79.14717102 Z M-5.57234192 79.14717102 C-4.57234192 81.14717102 -4.57234192 81.14717102 -4.57234192 81.14717102 Z M73.42765808 79.14717102 C73.42765808 80.13717102 73.42765808 81.12717102 73.42765808 82.14717102 C84.31765808 82.14717102 95.20765808 82.14717102 106.42765808 82.14717102 C106.42765808 81.81717102 106.42765808 81.48717102 106.42765808 81.14717102 C95.86765808 81.14717102 85.30765808 81.14717102 74.42765808 81.14717102 C74.09765808 80.48717102 73.76765808 79.82717102 73.42765808 79.14717102 Z M106.42765808 79.14717102 C107.42765808 81.14717102 107.42765808 81.14717102 107.42765808 81.14717102 Z M-11.57234192 81.14717102 C-11.24234192 82.46717102 -10.91234192 83.78717102 -10.57234192 85.14717102 C-10.24234192 84.48717102 -9.91234192 83.82717102 -9.57234192 83.14717102 C-10.23234192 82.48717102 -10.89234192 81.82717102 -11.57234192 81.14717102 Z M112.42765808 82.14717102 C113.42765808 84.14717102 113.42765808 84.14717102 113.42765808 84.14717102 Z M-3.57234192 89.14717102 C-3.57234192 89.47717102 -3.57234192 89.80717102 -3.57234192 90.14717102 C32.39765808 90.14717102 68.36765808 90.14717102 105.42765808 90.14717102 C105.42765808 89.81717102 105.42765808 89.48717102 105.42765808 89.14717102 C69.45765808 89.14717102 33.48765808 89.14717102 -3.57234192 89.14717102 Z " fill="#2A2C2C" transform="translate(17.572341918945313,1.8528289794921875)"/>
<path d="M0 0 C9.70968223 -0.04633264 19.41933818 -0.08187394 29.12910843 -0.10362434 C33.63770705 -0.11406323 38.14623005 -0.12822439 42.65478516 -0.15087891 C47.00547784 -0.17260348 51.35609778 -0.18456783 55.70684052 -0.18975449 C57.36703385 -0.19345093 59.02722318 -0.20066911 60.68738556 -0.21146011 C63.01205564 -0.22596996 65.33642476 -0.22797816 67.66113281 -0.22705078 C68.69151924 -0.23783661 68.69151924 -0.23783661 69.74272156 -0.24884033 C73.65304273 -0.2319515 75.36753509 0.18376755 79 2 C79 24.77 79 47.54 79 71 C78.34 70.67 77.68 70.34 77 70 C76.39023734 65.34624538 76.25350648 60.68986994 76 56 C75.67 61.28 75.34 66.56 75 72 C62.79 72 50.58 72 38 72 C38 48.9 38 25.8 38 2 C37.34 2 36.68 2 36 2 C36.00222061 2.86221664 36.00444122 3.72443329 36.00672913 4.61277771 C36.02672995 12.72106036 36.04197306 20.82933477 36.05181217 28.93763638 C36.05704051 33.10662828 36.06413726 37.27559987 36.07543945 41.44458008 C36.08627008 45.46457686 36.09227721 49.48455405 36.09487724 53.50456429 C36.09673118 55.04162975 36.10035119 56.57869409 36.10573006 58.11575127 C36.11294284 60.26135487 36.11399084 62.40687655 36.11352539 64.55249023 C36.115746 65.77604721 36.11796661 66.99960419 36.12025452 68.26023865 C36 71 36 71 35 72 C32.47905924 72.08847743 29.98569107 72.11527301 27.46484375 72.09765625 C26.33496788 72.09553383 26.33496788 72.09553383 25.18226624 72.09336853 C22.7673044 72.08775376 20.35243399 72.07519883 17.9375 72.0625 C16.30403779 72.0574869 14.67057414 72.05292366 13.03710938 72.04882812 C9.02470415 72.03777954 5.01236759 72.02050506 1 72 C1.495 71.01 1.495 71.01 2 70 C17.84 70.495 17.84 70.495 34 71 C34 47.9 34 24.8 34 1 C22.78 1.33 11.56 1.66 0 2 C0 1.34 0 0.68 0 0 Z M39 1 C39 24.1 39 47.2 39 71 C50.55 71 62.1 71 74 71 C72.09768818 68.64684323 72.09768818 68.64684323 68.83544922 68.86474609 C67.49148742 68.90707177 66.14785266 68.9607307 64.8046875 69.0234375 C64.09724396 69.04846344 63.38980042 69.07348938 62.66091919 69.09927368 C60.39846281 69.1815329 58.13687194 69.2780969 55.875 69.375 C54.34248342 69.43323369 52.80993119 69.4905371 51.27734375 69.546875 C47.51754571 69.68537244 43.75925767 69.84318767 40 70 C40 63.4 40 56.8 40 50 C50.89 50 61.78 50 73 50 C72.67 49.34 72.34 48.68 72 48 C56.16 48.495 56.16 48.495 40 49 C40 41.74 40 34.48 40 27 C56.335 27.495 56.335 27.495 73 28 C73 27.34 73 26.68 73 26 C62.11 26 51.22 26 40 26 C40.33 18.41 40.66 10.82 41 3 C43.28679688 3.02320313 45.57359375 3.04640625 47.9296875 3.0703125 C50.14045659 3.0859026 52.3512196 3.09805097 54.56201172 3.10986328 C56.10045098 3.11993118 57.63887107 3.13358646 59.17724609 3.15087891 C61.38644133 3.17509317 63.59538395 3.18647491 65.8046875 3.1953125 C66.83914505 3.21079636 66.83914505 3.21079636 67.89450073 3.22659302 C69.59800906 3.22699478 71.30085943 3.12191026 73 3 C73.66 2.34 74.32 1.68 75 1 C63.12 1 51.24 1 39 1 Z M73 4 C73 10.93 73 17.86 73 25 C73.33 25 73.66 25 74 25 C74 18.07 74 11.14 74 4 C73.67 4 73.34 4 73 4 Z M73 29 C73 34.94 73 40.88 73 47 C73.33 47 73.66 47 74 47 C74 41.06 74 35.12 74 29 C73.67 29 73.34 29 73 29 Z M73 51 C73 56.61 73 62.22 73 68 C73.33 68 73.66 68 74 68 C74 62.39 74 56.78 74 51 C73.67 51 73.34 51 73 51 Z " fill="#212328" transform="translate(12,13)"/>
<path d="M0 0 C14.4207544 -0.07004906 28.84148247 -0.12276861 43.26237202 -0.15543652 C49.95809843 -0.17111302 56.65370715 -0.19201507 63.34936523 -0.22631836 C69.80731011 -0.25884077 76.26514508 -0.27683805 82.72316551 -0.28463173 C85.19081542 -0.29018803 87.6584591 -0.30103765 90.12606239 -0.31719017 C93.57416556 -0.33886948 97.02181069 -0.34197086 100.4699707 -0.34057617 C101.49711685 -0.351362 102.524263 -0.36214783 103.58253479 -0.3732605 C104.52062988 -0.36913651 105.45872498 -0.36501251 106.42524719 -0.36076355 C107.24103398 -0.36352893 108.05682077 -0.36629431 108.89732838 -0.36914349 C111.53359392 0.09367736 112.4158788 0.87181023 114 3 C114.36076355 5.94230652 114.36076355 5.94230652 114.34057617 9.58276367 C114.34123329 10.57828499 114.34123329 10.57828499 114.34190369 11.59391785 C114.33981519 13.78556839 114.31648268 15.97645201 114.29296875 18.16796875 C114.28737298 19.6882536 114.28310279 21.20854386 114.28010559 22.72883606 C114.26865524 26.72877965 114.23918672 30.72839606 114.20599365 34.72821045 C114.17529669 38.8102984 114.16160107 42.89243925 114.14648438 46.97460938 C114.11431695 54.98322301 114.0631186 62.99157079 114 71 C110.4591786 72.1802738 107.37644627 72.0238386 103.70703125 71.87890625 C102.64798836 71.84348976 102.64798836 71.84348976 101.56755066 71.80735779 C99.31565493 71.73087055 97.06411613 71.64678253 94.8125 71.5625 C93.28452259 71.50926432 91.75652784 71.45652401 90.22851562 71.40429688 C86.48545165 71.27527576 82.74268981 71.13943788 79 71 C77.35161056 67.70322112 77.85727262 64.05683956 77.875 60.4375 C77.87113281 59.64408203 77.86726563 58.85066406 77.86328125 58.03320312 C77.87336933 52.12663067 77.87336933 52.12663067 79 51 C81.3756852 50.9116033 83.72208674 50.88469695 86.09765625 50.90234375 C87.16094398 50.90446617 87.16094398 50.90446617 88.24571228 50.90663147 C90.51801712 50.91224557 92.79022475 50.92480037 95.0625 50.9375 C96.59960796 50.94251319 98.13671745 50.94707641 99.67382812 50.95117188 C103.44925642 50.96221958 107.22461171 50.97949359 111 51 C111 50.67 111 50.34 111 50 C100.44 50 89.88 50 79 50 C77.8646346 47.72926921 77.87107588 46.45716721 77.8671875 43.9375 C77.86589844 43.14085937 77.86460938 42.34421875 77.86328125 41.5234375 C77.86714844 40.69070312 77.87101562 39.85796875 77.875 39 C77.87113281 38.16726562 77.86726563 37.33453125 77.86328125 36.4765625 C77.86457031 35.67992187 77.86585937 34.88328125 77.8671875 34.0625 C77.86831543 33.33160156 77.86944336 32.60070313 77.87060547 31.84765625 C78 30 78 30 79 28 C89.56 28 100.12 28 111 28 C111 27.67 111 27.34 111 27 C100.44 27 89.88 27 79 27 C77.81192007 24.62384014 77.87085478 23.1488258 77.8671875 20.5 C77.86589844 19.613125 77.86460938 18.72625 77.86328125 17.8125 C77.86714844 16.884375 77.87101562 15.95625 77.875 15 C77.87113281 14.071875 77.86726563 13.14375 77.86328125 12.1875 C77.86457031 11.300625 77.86585937 10.41375 77.8671875 9.5 C77.86831543 8.6853125 77.86944336 7.870625 77.87060547 7.03125 C78 5 78 5 79 3 C74.64143697 1.9174184 70.41687591 1.8873339 65.95703125 1.9375 C64.32421936 1.94607988 62.69140682 1.95453818 61.05859375 1.96289062 C60.20249512 1.96909424 59.34639648 1.97529785 58.46435547 1.98168945 C43.79979947 2.08294536 29.15750322 1.97413788 14.5 1.5 C13.75722809 1.47599121 13.01445618 1.45198242 12.24917603 1.42724609 C8.16579809 1.29325465 4.08279893 1.15073963 0 1 C0 0.67 0 0.34 0 0 Z M111 3 C112 5 112 5 112 5 Z M111 69 C112 71 112 71 112 71 Z " fill="#1B241B" transform="translate(13,12)"/>
<path d="M0 0 C0.93783829 -0.0071553 1.87567657 -0.01431061 2.8419342 -0.02168274 C3.86900482 -0.02437164 4.89607544 -0.02706055 5.95426941 -0.02983093 C7.03746964 -0.03640213 8.12066986 -0.04297333 9.23669434 -0.04974365 C12.82769334 -0.06948348 16.41865054 -0.08114007 20.00968933 -0.09111023 C21.23509619 -0.09518576 22.46050304 -0.09926128 23.72304344 -0.10346031 C29.53867357 -0.12217136 35.35428723 -0.13673735 41.16994172 -0.14507228 C47.20949598 -0.15387179 53.2487991 -0.17317386 59.28825378 -0.20951843 C65.76915004 -0.2479002 72.2498196 -0.2667543 78.73082542 -0.27127647 C81.20158313 -0.27615219 83.67233706 -0.28779401 86.14303017 -0.30631447 C89.59990972 -0.33061922 93.05592461 -0.32975639 96.51286316 -0.32279968 C98.04436005 -0.34201477 98.04436005 -0.34201477 99.60679626 -0.36161804 C105.39878008 -0.31911717 108.87800516 0.18939303 113.42765808 4.14717102 C118.9780943 10.70735611 118.0092913 18.70472759 117.95890808 26.86201477 C117.96160664 28.40226486 117.96549208 29.94251328 117.97050476 31.48275757 C117.97638458 34.70301106 117.96788765 37.92281914 117.94914246 41.14302063 C117.92637244 45.25311033 117.93947232 49.36215392 117.96343231 53.47220516 C117.97794824 56.6508764 117.97325766 59.8293033 117.96292114 63.00798225 C117.96026881 64.52251372 117.9634706 66.03706799 117.97283936 67.5515728 C118.05099488 83.73686459 118.05099488 83.73686459 113.42765808 89.14717102 C107.55719975 93.42899544 101.67070963 93.72299607 94.62467957 93.66474915 C93.57161621 93.67175842 92.51855286 93.6787677 91.43357849 93.68598938 C87.97169704 93.7035159 84.5106408 93.69196582 81.04875183 93.67842102 C78.63314661 93.68111725 76.21754244 93.68500076 73.80194092 93.6900177 C68.7474684 93.69590537 63.69327923 93.68737222 58.63883972 93.6686554 C52.16685938 93.64585455 45.69554217 93.65900147 39.22358608 93.68294525 C34.23838318 93.69741227 29.25333702 93.69279319 24.26812935 93.68243408 C21.88195275 93.67976996 19.49576183 93.68302546 17.10960197 93.69235229 C13.77309941 93.70253363 10.43766524 93.68699367 7.10124207 93.66474915 C6.11974686 93.67284607 5.13825165 93.68094299 4.12701416 93.68928528 C-1.97459738 93.61408688 -5.57713693 92.71229293 -10.57234192 89.14717102 C-15.0316028 84.33586323 -15.69736966 80.92070451 -15.73347473 74.47602844 C-15.73843964 73.80247818 -15.74340454 73.12892792 -15.7485199 72.43496704 C-15.76311981 70.2075142 -15.76994026 67.9801326 -15.77546692 65.75263977 C-15.78122065 64.20188394 -15.78697836 62.65112812 -15.79273987 61.10037231 C-15.80324402 57.84798349 -15.80909035 54.59561934 -15.81257629 51.34321594 C-15.81805641 47.18370793 -15.84207634 43.02452802 -15.87054825 38.8651228 C-15.88920981 35.66085876 -15.89438212 32.45667317 -15.89591217 29.25235939 C-15.89893186 27.71941143 -15.9069373 26.18646462 -15.92009735 24.65357018 C-15.9372303 22.50429507 -15.93526036 20.35581365 -15.92878723 18.20649719 C-15.93425568 16.3747419 -15.93425568 16.3747419 -15.93983459 14.50598145 C-15.39110518 9.49070301 -13.76284923 6.24839028 -10.07234192 2.83467102 C-6.6282438 0.50990479 -4.05656381 0.02126113 0 0 Z M-11.93017578 8.97213745 C-12.82766724 12.01196459 -12.83502585 14.7781114 -12.84700012 17.94770813 C-12.85211105 18.62301071 -12.85722198 19.29831329 -12.86248779 19.99407959 C-12.87636011 22.22098208 -12.87542887 24.44757427 -12.87312317 26.67451477 C-12.87701139 28.22623814 -12.88134632 29.77796046 -12.8861084 31.3296814 C-12.89356551 34.58032177 -12.89328304 37.83085353 -12.88801575 41.08149719 C-12.88222157 45.24222534 -12.899153 49.40250826 -12.92236042 53.5631628 C-12.93710927 56.76740101 -12.93796791 59.97153228 -12.93485069 63.17579842 C-12.93536332 64.70956364 -12.94059014 66.24333495 -12.95066261 67.77706718 C-12.96303257 69.92408355 -12.95623297 72.0702363 -12.94465637 74.21723938 C-12.9452858 75.43761398 -12.94591522 76.65798859 -12.94656372 77.91534424 C-12.37405464 82.85960504 -10.69942082 85.12874872 -7.04782104 88.42831421 C-2.26409 90.79418907 1.7669011 90.70033966 7.0353241 90.64888 C8.09130798 90.65428299 9.14729187 90.65968597 10.23527527 90.66525269 C13.71765874 90.67773622 17.19921498 90.66125168 20.68156433 90.64326477 C23.10481815 90.64341975 25.52807222 90.64490863 27.95132446 90.64767456 C33.02614825 90.64905835 38.10068935 90.63650234 43.17546082 90.61372375 C49.6812415 90.58532446 56.18655303 90.58808103 62.69236851 90.60081387 C67.69464121 90.60776723 72.6968054 90.59998584 77.69906425 90.58755684 C80.0980532 90.58304011 82.49705378 90.58270746 84.89604378 90.58662224 C88.24740123 90.58953139 91.59811097 90.57304121 94.9493866 90.55122375 C95.94121445 90.5557254 96.9330423 90.56022705 97.95492554 90.56486511 C104.04408338 90.49897645 107.47134133 89.68115681 112.17765808 85.64717102 C114.95989 82.30849272 114.57124723 78.61277326 114.60466003 74.47602844 C114.61123123 73.80247818 114.61780243 73.12892792 114.62457275 72.43496704 C114.64427147 70.20752343 114.65596058 67.98014713 114.66593933 65.75263977 C114.67001486 64.99060053 114.67409039 64.22856129 114.67828941 63.44342995 C114.69913547 59.41002805 114.71344354 55.37666003 114.7228241 51.34321594 C114.73388607 47.18361008 114.76828714 43.02453952 114.8079958 38.8651228 C114.83417652 35.66085841 114.84251718 32.45672132 114.84610558 29.25235939 C114.85096774 27.71939287 114.86257131 26.1864319 114.88114357 24.65357018 C114.90556794 22.50411758 114.90456503 20.3560469 114.89762878 18.20649719 C114.90642815 16.3747419 114.90642815 16.3747419 114.91540527 14.50598145 C114.32694533 10.45362517 112.97687476 8.31731261 110.42765808 5.14717102 C107.25647011 3.03304571 106.48342511 2.89465935 102.85531616 2.87974548 C101.91747787 2.87121552 100.97963959 2.86268555 100.01338196 2.85389709 C98.98631134 2.85480347 97.95924072 2.85570984 96.90104675 2.85664368 C95.81784653 2.84992645 94.7346463 2.84320923 93.61862183 2.83628845 C90.02757718 2.81724657 86.43671886 2.81338097 82.84562683 2.81123352 C80.35321983 2.80480941 77.8608136 2.79808134 75.3684082 2.7910614 C70.1387155 2.77907279 64.90907021 2.77529663 59.67936707 2.77656555 C54.3084783 2.77763352 48.93787722 2.76355942 43.56706238 2.73554993 C37.08614677 2.70223105 30.60548982 2.6884536 24.12449074 2.689785 C21.65374096 2.68742387 19.18298858 2.67857168 16.712286 2.66312027 C13.25537307 2.64352779 9.79938071 2.64927293 6.342453 2.66133118 C5.32145508 2.65009216 4.30045715 2.63885315 3.2485199 2.62727356 C-3.22080311 2.68462443 -7.81533252 3.4416738 -11.93017578 8.97213745 Z " fill="#D7D7D7" transform="translate(17.572341918945313,1.8528289794921875)"/>
<path d="M0 0 C0.68429077 -0.00095673 1.36858154 -0.00191345 2.0736084 -0.00289917 C3.52286877 -0.0035808 4.97213218 -0.00172773 6.42138672 0.00244141 C8.64687928 0.00778998 10.87217001 0.0024959 13.09765625 -0.00390625 C14.50260461 -0.00324547 15.90755285 -0.0019643 17.3125 0 C18.59962891 0.00112793 19.88675781 0.00225586 21.21289062 0.00341797 C24.15625 0.1328125 24.15625 0.1328125 25.15625 1.1328125 C25.24338831 2.84053608 25.26325007 4.55179899 25.25390625 6.26171875 C25.25140869 7.19314697 25.24891113 8.1245752 25.24633789 9.08422852 C25.23723389 10.27588623 25.22812988 11.46754395 25.21875 12.6953125 C25.198125 16.4696875 25.1775 20.2440625 25.15625 24.1328125 C14.26625 24.1328125 3.37625 24.1328125 -7.84375 24.1328125 C-7.864375 20.3584375 -7.885 16.5840625 -7.90625 12.6953125 C-7.915354 11.50365479 -7.92445801 10.31199707 -7.93383789 9.08422852 C-7.93633545 8.15280029 -7.93883301 7.22137207 -7.94140625 6.26171875 C-7.94664307 5.30338135 -7.95187988 4.34504395 -7.95727539 3.35766602 C-7.71460652 -1.39812207 -3.96123486 0.00347129 0 0 Z " fill="#FDC504" transform="translate(59.84375,14.8671875)"/>
<path d="M0 0 C4.39656173 -0.02465504 8.7930872 -0.04283842 13.18969727 -0.05493164 C14.68644918 -0.05997121 16.18319616 -0.06680287 17.67993164 -0.07543945 C19.82699807 -0.08752159 21.97399962 -0.09323191 24.12109375 -0.09765625 C26.06133423 -0.10551147 26.06133423 -0.10551147 28.04077148 -0.11352539 C31 0 31 0 32 1 C32.08713831 2.70772358 32.10700007 4.41898649 32.09765625 6.12890625 C32.09443359 7.16337891 32.09121094 8.19785156 32.08789062 9.26367188 C32.07532227 10.8965918 32.07532227 10.8965918 32.0625 12.5625 C32.05798828 13.65498047 32.05347656 14.74746094 32.04882812 15.87304688 C32.03699826 18.58208495 32.02051543 21.29101599 32 24 C27.46102295 24.02465392 22.92208457 24.04283789 18.38305664 24.05493164 C16.83780234 24.0599714 15.29255284 24.0668032 13.74731445 24.07543945 C11.53074971 24.08752076 9.31424782 24.09323173 7.09765625 24.09765625 C6.05545677 24.10539818 6.05545677 24.10539818 4.99220276 24.11329651 C3.3277067 24.11349277 1.66334501 24.06189129 0 24 C-1.61686074 22.38313926 -1.12989349 20.6092385 -1.1328125 18.37890625 C-1.13410156 17.44369141 -1.13539062 16.50847656 -1.13671875 15.54492188 C-1.13285156 14.56072266 -1.12898437 13.57652344 -1.125 12.5625 C-1.12886719 11.58216797 -1.13273438 10.60183594 -1.13671875 9.59179688 C-1.13542969 8.65529297 -1.13414063 7.71878906 -1.1328125 6.75390625 C-1.13168457 5.89095947 -1.13055664 5.0280127 -1.12939453 4.13891602 C-1 2 -1 2 0 0 Z " fill="#0767DA" transform="translate(13,15)"/>
<path d="M0 0 C4.53904366 -0.02291161 9.07788802 -0.04283781 13.61694336 -0.05493164 C15.16219766 -0.0599714 16.70744716 -0.0668032 18.25268555 -0.07543945 C20.46925029 -0.08752076 22.68575218 -0.09323173 24.90234375 -0.09765625 C25.5971434 -0.10281754 26.29194305 -0.10797882 27.00779724 -0.11329651 C28.6722933 -0.11349277 30.33665499 -0.06189129 32 0 C33.58937556 1.58937556 33.12981143 3.23899846 33.1328125 5.4375 C33.13474609 6.77941406 33.13474609 6.77941406 33.13671875 8.1484375 C33.13285156 9.08945312 33.12898438 10.03046875 33.125 11 C33.13080078 12.41152344 33.13080078 12.41152344 33.13671875 13.8515625 C33.13542969 14.74617188 33.13414063 15.64078125 33.1328125 16.5625 C33.13168457 17.38878906 33.13055664 18.21507813 33.12939453 19.06640625 C33 21 33 21 32 22 C29.6243148 22.0883967 27.27791326 22.11530305 24.90234375 22.09765625 C23.83905602 22.09553383 23.83905602 22.09553383 22.75428772 22.09336853 C20.48198288 22.08775443 18.20977525 22.07519963 15.9375 22.0625 C14.40039204 22.05748681 12.86328255 22.05292359 11.32617188 22.04882812 C7.55071333 22.0386297 3.77546596 22.01905732 0 22 C0 14.74 0 7.48 0 0 Z " fill="#FDC600" transform="translate(52,40)"/>
<path d="M0 0 C1.34888732 0.00015905 2.69778075 0.00584927 4.04663086 0.01586914 C5.10991859 0.01799156 5.10991859 0.01799156 6.19468689 0.02015686 C8.46699173 0.02577096 10.73919936 0.03832576 13.01147461 0.05102539 C14.54858257 0.05603858 16.08569206 0.0606018 17.62280273 0.06469727 C21.39826128 0.07489569 25.17350865 0.09446808 28.94897461 0.11352539 C28.94897461 7.37352539 28.94897461 14.63352539 28.94897461 22.11352539 C18.38897461 22.11352539 7.82897461 22.11352539 -3.05102539 22.11352539 C-4.21684457 19.78188703 -4.18008148 18.39199057 -4.18383789 15.79711914 C-4.18512695 14.95084961 -4.18641602 14.10458008 -4.18774414 13.23266602 C-4.18387695 12.34772461 -4.18000977 11.4627832 -4.17602539 10.55102539 C-4.17989258 9.6622168 -4.18375977 8.7734082 -4.18774414 7.85766602 C-4.18645508 7.01268555 -4.18516602 6.16770508 -4.18383789 5.29711914 C-4.18270996 4.51908936 -4.18158203 3.74105957 -4.18041992 2.93945312 C-3.9560088 -0.22728413 -3.22847552 0.12012812 0 0 Z " fill="#1F77DE" transform="translate(16.051025390625,39.886474609375)"/>
<path d="M0 0 C10.56 0 21.12 0 32 0 C32 7.26 32 14.52 32 22 C21.44 22 10.88 22 0 22 C-1.1353654 19.72926921 -1.12892412 18.45716721 -1.1328125 15.9375 C-1.13410156 15.14085937 -1.13539062 14.34421875 -1.13671875 13.5234375 C-1.13285156 12.69070312 -1.12898438 11.85796875 -1.125 11 C-1.13080078 9.75089844 -1.13080078 9.75089844 -1.13671875 8.4765625 C-1.13542969 7.67992187 -1.13414063 6.88328125 -1.1328125 6.0625 C-1.13168457 5.33160156 -1.13055664 4.60070313 -1.12939453 3.84765625 C-1 2 -1 2 0 0 Z " fill="#329409" transform="translate(92,40)"/>
<path d="M0 0 C0.66 0 1.32 0 2 0 C2 23.1 2 46.2 2 70 C14.21 70 26.42 70 39 70 C39 64.72 39 59.44 39 54 C39.66 53.67 40.32 53.34 41 53 C41.495 60.425 41.495 60.425 42 68 C53.88 68 65.76 68 78 68 C78.66 64.7 79.32 61.4 80 58 C80.33 58 80.66 58 81 58 C82.60317339 69.15722023 82.60317339 69.15722023 80 73 C77.09642978 73.99240684 74.38340139 74.13106508 71.33190918 74.14717102 C69.9313755 74.15790398 69.9313755 74.15790398 68.50254822 74.16885376 C67.48528152 74.17154266 66.46801483 74.17423157 65.41992188 74.17700195 C63.80471397 74.18685875 63.80471397 74.18685875 62.15687561 74.19691467 C58.59416637 74.21662432 55.03149915 74.22830227 51.46875 74.23828125 C50.25279648 74.24235678 49.03684296 74.2464323 47.78404236 74.25063133 C41.35391408 74.27147746 34.92380709 74.28578814 28.49365234 74.29516602 C21.84195089 74.30625541 15.19068378 74.34068852 8.53908539 74.38033772 C3.43136963 74.4064278 -1.67626582 74.41485086 -6.78404236 74.41844749 C-9.23691565 74.4233295 -11.68978498 74.434989 -14.14259338 74.45348549 C-17.56864175 74.47772481 -20.99381477 74.47693997 -24.41992188 74.4699707 C-25.94582191 74.48918579 -25.94582191 74.48918579 -27.50254822 74.50878906 C-34.35109014 74.45785667 -34.35109014 74.45785667 -37.67687988 72.11125183 C-39 70 -39 70 -38.75 67.75 C-38.5025 67.1725 -38.255 66.595 -38 66 C-37.34 66 -36.68 66 -36 66 C-35.67 67.32 -35.34 68.64 -35 70 C-23.78 69.67 -12.56 69.34 -1 69 C-0.67 46.23 -0.34 23.46 0 0 Z " fill="#313435" transform="translate(48,15)"/>
<path d="M0 0 C10.89 0 21.78 0 33 0 C33.020625 3.114375 33.04125 6.22875 33.0625 9.4375 C33.071604 10.42032959 33.08070801 11.40315918 33.09008789 12.41577148 C33.09258545 13.18477783 33.09508301 13.95378418 33.09765625 14.74609375 C33.10289307 15.53685303 33.10812988 16.3276123 33.11352539 17.14233398 C33 19 33 19 32 20 C29.6243148 20.0883967 27.27791326 20.11530305 24.90234375 20.09765625 C23.83905602 20.09553383 23.83905602 20.09553383 22.75428772 20.09336853 C20.48198288 20.08775443 18.20977525 20.07519963 15.9375 20.0625 C14.40039204 20.05748681 12.86328255 20.05292359 11.32617188 20.04882812 C7.55071333 20.0386297 3.77546596 20.01905732 0 20 C0 13.4 0 6.8 0 0 Z " fill="#FEC600" transform="translate(52,63)"/>
<path d="M0 0 C1.34888732 0.00015905 2.69778075 0.00584927 4.04663086 0.01586914 C5.10991859 0.01799156 5.10991859 0.01799156 6.19468689 0.02015686 C8.46699173 0.02577096 10.73919936 0.03832576 13.01147461 0.05102539 C14.54858257 0.05603858 16.08569206 0.0606018 17.62280273 0.06469727 C21.39826128 0.07489569 25.17350865 0.09446808 28.94897461 0.11352539 C28.94897461 6.71352539 28.94897461 13.31352539 28.94897461 20.11352539 C18.38897461 20.11352539 7.82897461 20.11352539 -3.05102539 20.11352539 C-4.69941483 16.81674651 -4.19375277 13.17036495 -4.17602539 9.55102539 C-4.17989258 8.75760742 -4.18375977 7.96418945 -4.18774414 7.14672852 C-4.17580332 0.15537717 -4.17580332 0.15537717 0 0 Z " fill="#0067DC" transform="translate(16.051025390625,62.886474609375)"/>
<path d="M0 0 C1.34888732 0.00015905 2.69778075 0.00584927 4.04663086 0.01586914 C5.10991859 0.01799156 5.10991859 0.01799156 6.19468689 0.02015686 C8.46699173 0.02577096 10.73919936 0.03832576 13.01147461 0.05102539 C14.54858257 0.05603858 16.08569206 0.0606018 17.62280273 0.06469727 C21.39826128 0.07489569 25.17350865 0.09446808 28.94897461 0.11352539 C28.94897461 6.71352539 28.94897461 13.31352539 28.94897461 20.11352539 C18.38897461 20.11352539 7.82897461 20.11352539 -3.05102539 20.11352539 C-4.69941483 16.81674651 -4.19375277 13.17036495 -4.17602539 9.55102539 C-4.17989258 8.75760742 -4.18375977 7.96418945 -4.18774414 7.14672852 C-4.17580332 0.15537717 -4.17580332 0.15537717 0 0 Z " fill="#359B08" transform="translate(95.051025390625,62.886474609375)"/>
<path d="M0 0 C1.00023193 0.00523682 2.00046387 0.01047363 3.03100586 0.01586914 C4.1105957 0.0190918 5.19018555 0.02231445 6.30249023 0.02563477 C8.00695312 0.03820313 8.00695312 0.03820313 9.74584961 0.05102539 C11.45611328 0.05779297 11.45611328 0.05779297 13.20092773 0.06469727 C16.02845312 0.07652792 18.85587601 0.09301129 21.68334961 0.11352539 C22.34334961 2.42352539 23.00334961 4.73352539 23.68334961 7.11352539 C17.74334961 12.55852539 17.74334961 12.55852539 11.68334961 18.11352539 C7.68334961 16.11352539 7.68334961 16.11352539 4.68334961 14.11352539 C8.09407838 18.22389083 10.59680335 20.16830596 15.93334961 20.73461914 C20.1822617 21.02449026 24.42535386 21.1039461 28.68334961 21.11352539 C28.68334961 21.44352539 28.68334961 21.77352539 28.68334961 22.11352539 C24.28678788 22.13818043 19.89026241 22.15636381 15.49365234 22.16845703 C13.99690043 22.1734966 12.50015345 22.18032826 11.00341797 22.18896484 C8.85635154 22.20104698 6.70934999 22.2067573 4.56225586 22.21118164 C2.62201538 22.21903687 2.62201538 22.21903687 0.64257812 22.22705078 C-2.31665039 22.11352539 -2.31665039 22.11352539 -3.31665039 21.11352539 C-3.41545836 19.63699875 -3.44744285 18.15585303 -3.44946289 16.67602539 C-3.45075195 15.78141602 -3.45204102 14.88680664 -3.45336914 13.96508789 C-3.44756836 12.55356445 -3.44756836 12.55356445 -3.44165039 11.11352539 C-3.44551758 10.17250977 -3.44938477 9.23149414 -3.45336914 8.26196289 C-3.45208008 7.36735352 -3.45079102 6.47274414 -3.44946289 5.55102539 C-3.447771 4.3115918 -3.447771 4.3115918 -3.44604492 3.04711914 C-3.2544468 0.18399246 -2.871006 0.14069109 0 0 Z " fill="#379E0A" transform="translate(94.316650390625,15.886474609375)"/>
<path d="M0 0 C0.66 0 1.32 0 2 0 C1.67 0.99 1.34 1.98 1 3 C0.34 3 -0.32 3 -1 3 C-1.04633574 12.44891862 -1.0818755 21.89779814 -1.10362434 31.34680557 C-1.11406257 35.73433698 -1.12822249 40.12179067 -1.15087891 44.50927734 C-1.17260589 48.74326085 -1.18456834 52.97716958 -1.18975449 57.21120453 C-1.1934505 58.82674079 -1.20066785 60.44227296 -1.21146011 62.0577774 C-1.22597318 64.32018383 -1.22797803 66.58228109 -1.22705078 68.84472656 C-1.231492 70.13268127 -1.23593323 71.42063599 -1.24050903 72.74761963 C-1.01439835 75.80529252 -0.71971723 77.49925457 1 80 C3.40278975 81.20139488 4.88525367 81.12320302 7.56838989 81.12025452 C8.53035278 81.12162918 9.49231567 81.12300385 10.48342896 81.12442017 C11.5422226 81.12082489 12.60101624 81.11722961 13.69189453 81.11352539 C14.80409363 81.11367142 15.91629272 81.11381744 17.06219482 81.1139679 C20.7524203 81.1132691 24.4425958 81.10547824 28.1328125 81.09765625 C30.68586194 81.09579195 33.23891174 81.0943681 35.79196167 81.09336853 C41.83386916 81.08993553 47.87575508 81.08204747 53.91765392 81.07201904 C60.79543876 81.06085045 67.67322445 81.05534557 74.55101609 81.05032361 C88.7006874 81.03986466 102.85034271 81.02226986 117 81 C115.37461377 82.96779915 114.48081679 83.91167311 111.92970562 84.38031673 C111.12908608 84.38274663 110.32846655 84.38517653 109.50358582 84.38768005 C108.58257584 84.39758469 107.66156586 84.40748932 106.71264648 84.41769409 C105.20009277 84.41094162 105.20009277 84.41094162 103.65698242 84.40405273 C102.59328934 84.41091599 101.52959625 84.41777924 100.43367004 84.42485046 C96.9074682 84.44319345 93.3817082 84.43926943 89.85546875 84.43359375 C87.40790155 84.43815267 84.96033564 84.44345737 82.51277161 84.44947815 C77.37719532 84.45842455 72.24177439 84.4559695 67.10620117 84.44604492 C60.52526772 84.43456661 53.94487173 84.45474216 47.3640089 84.48396206 C42.30679414 84.50231278 37.24970834 84.50203356 32.19246864 84.49632454 C29.76638346 84.49617112 27.34028965 84.50223263 24.91423607 84.51461601 C21.51954914 84.52949832 18.12585705 84.5188672 14.73120117 84.50170898 C13.72890472 84.51137695 12.72660828 84.52104492 11.69393921 84.53100586 C5.99296778 84.47068743 2.41522805 83.9912871 -2 80 C-4.49347139 76.64443279 -4.26490642 73.30388374 -4.29052734 69.21533203 C-4.29724457 68.54163574 -4.30396179 67.86793945 -4.31088257 67.17382812 C-4.32984473 64.95174741 -4.33378583 62.72996904 -4.3359375 60.5078125 C-4.3423668 58.95848467 -4.34909526 57.40915806 -4.35610962 55.85983276 C-4.36807799 52.61339504 -4.37179092 49.36706369 -4.37060547 46.12060547 C-4.37040233 41.96883447 -4.39770057 37.81774837 -4.43214989 33.6661396 C-4.45443209 30.46614474 -4.45844261 27.26631434 -4.45738602 24.06624985 C-4.45974014 22.53608719 -4.46855312 21.00591988 -4.48405075 19.47583389 C-4.50373846 17.33122618 -4.49786362 15.18809054 -4.48583984 13.04345703 C-4.48868988 11.82530304 -4.49153992 10.60714905 -4.49447632 9.3520813 C-3.90170509 5.33365358 -2.55554179 3.12304282 0 0 Z " fill="#212225" transform="translate(10,7)"/>
<path d="M0 0 C14.27309946 -0.07007971 28.54617224 -0.1227836 42.81940842 -0.15543652 C49.44672351 -0.17110658 56.0739232 -0.19236959 62.70117188 -0.22631836 C69.09428292 -0.25886358 75.4872828 -0.27684291 81.88047028 -0.28463173 C84.32217408 -0.29018391 86.76387165 -0.30102565 89.20552826 -0.31719017 C92.61990102 -0.33889972 96.03381176 -0.34196958 99.44824219 -0.34057617 C100.96954239 -0.35675491 100.96954239 -0.35675491 102.52157593 -0.3732605 C103.45263153 -0.36913651 104.38368713 -0.36501251 105.34295654 -0.36076355 C106.1504472 -0.36352893 106.95793785 -0.36629431 107.78989792 -0.36914349 C110.52179936 0.08715382 111.92862246 1.20919939 114 3 C113.34 3.66 112.68 4.32 112 5 C111.01 4.505 111.01 4.505 110 4 C108.5178625 3.89618184 107.03122443 3.85351983 105.54550171 3.84178162 C104.60878128 3.8319928 103.67206085 3.82220398 102.70695496 3.81211853 C101.67621353 3.80636307 100.64547211 3.8006076 99.58349609 3.79467773 C97.95908852 3.77982834 97.95908852 3.77982834 96.30186462 3.76467896 C92.7090781 3.73299765 89.11627834 3.70828032 85.5234375 3.68359375 C83.03764495 3.66302995 80.55185594 3.64203364 78.06607056 3.62062073 C72.18356894 3.57099623 66.30104629 3.5257463 60.41849387 3.48259836 C53.06541731 3.42839765 45.71239948 3.36743593 38.359375 3.30664062 C25.23962326 3.19898664 12.11983189 3.0973699 -1 3 C-0.67 2.01 -0.34 1.02 0 0 Z " fill="#E2E2E2" transform="translate(15,2)"/>
<path d="M0 0 C10.56 0 21.12 0 32 0 C32 7.92 32 15.84 32 24 C21.44 24 10.88 24 0 24 C0 23.67 0 23.34 0 23 C4.62 22.67 9.24 22.34 14 22 C11.36 19.69 8.72 17.38 6 15 C6.33 14.34 6.66 13.68 7 13 C8.65 14.65 10.3 16.3 12 18 C15.36194281 16.49292219 18.00157205 14.56248436 20.8125 12.1875 C21.62332031 11.52105469 22.43414062 10.85460937 23.26953125 10.16796875 C25.30027765 8.11000513 25.30027765 8.11000513 24.88671875 5.30078125 C24.23354959 2.83603928 24.23354959 2.83603928 22 2 C20.33434251 1.84777027 18.66343504 1.75082785 16.9921875 1.68359375 C16.00605469 1.64169922 15.01992187 1.59980469 14.00390625 1.55664062 C12.45509766 1.49766602 12.45509766 1.49766602 10.875 1.4375 C9.83472656 1.39431641 8.79445313 1.35113281 7.72265625 1.30664062 C5.14857472 1.2003712 2.57439492 1.09833417 0 1 C0 0.67 0 0.34 0 0 Z " fill="#308F0A" transform="translate(92,15)"/>
<path d="M0 0 C0.66 0 1.32 0 2 0 C2.66 1.65 3.32 3.3 4 5 C3.52949219 5.37511719 3.05898437 5.75023437 2.57421875 6.13671875 C-0.37438902 8.56031561 -2.70602942 10.51004904 -4.6875 13.8125 C-6 16 -6 16 -7.75390625 16.6328125 C-10.29204937 17.04774372 -12.67905902 17.09632817 -15.25 17.0625 C-16.8175 17.041875 -18.385 17.02125 -20 17 C-20 11.72 -20 6.44 -20 1 C-17.96005859 1.01740234 -17.96005859 1.01740234 -15.87890625 1.03515625 C-14.1067722 1.04453262 -12.33463667 1.05363298 -10.5625 1.0625 C-9.66466797 1.07087891 -8.76683594 1.07925781 -7.84179688 1.08789062 C-6.56079102 1.09272461 -6.56079102 1.09272461 -5.25390625 1.09765625 C-4.46314697 1.10289307 -3.6723877 1.10812988 -2.85766602 1.11352539 C-0.98407311 1.20495909 -0.98407311 1.20495909 0 0 Z " fill="#379A0D" transform="translate(114,42)"/>
<path d="M0 0 C1.34888732 0.00015905 2.69778075 0.00584927 4.04663086 0.01586914 C5.10991859 0.01799156 5.10991859 0.01799156 6.19468689 0.02015686 C8.46699173 0.02577096 10.73919936 0.03832576 13.01147461 0.05102539 C14.54858257 0.05603858 16.08569206 0.0606018 17.62280273 0.06469727 C21.39826128 0.07489569 25.17350865 0.09446808 28.94897461 0.11352539 C28.94897461 7.37352539 28.94897461 14.63352539 28.94897461 22.11352539 C18.38897461 22.11352539 7.82897461 22.11352539 -3.05102539 22.11352539 C-4.21684457 19.78188703 -4.18008148 18.39199057 -4.18383789 15.79711914 C-4.18512695 14.95084961 -4.18641602 14.10458008 -4.18774414 13.23266602 C-4.18387695 12.34772461 -4.18000977 11.4627832 -4.17602539 10.55102539 C-4.17989258 9.6622168 -4.18375977 8.7734082 -4.18774414 7.85766602 C-4.18645508 7.01268555 -4.18516602 6.16770508 -4.18383789 5.29711914 C-4.18270996 4.51908936 -4.18158203 3.74105957 -4.18041992 2.93945312 C-3.9560088 -0.22728413 -3.22847552 0.12012812 0 0 Z M-1.05102539 3.11352539 C-1.05102539 8.39352539 -1.05102539 13.67352539 -1.05102539 19.11352539 C8.18897461 19.11352539 17.42897461 19.11352539 26.94897461 19.11352539 C27.83644654 15.56363768 28.05442928 12.97171761 28.01147461 9.36352539 C28.00245117 8.37868164 27.99342773 7.39383789 27.98413086 6.37915039 C27.9725293 5.63149414 27.96092773 4.88383789 27.94897461 4.11352539 C24.30249401 3.27247759 20.94946553 2.99587571 17.21069336 3.01586914 C15.61064453 3.02070312 15.61064453 3.02070312 13.97827148 3.02563477 C12.87547852 3.03401367 11.77268555 3.04239258 10.63647461 3.05102539 C8.95328125 3.05779297 8.95328125 3.05779297 7.23608398 3.06469727 C4.47369125 3.07645213 1.71132605 3.0943867 -1.05102539 3.11352539 Z " fill="#0064DD" transform="translate(16.051025390625,39.886474609375)"/>
<path d="M0 0 C0.33 0 0.66 0 1 0 C1 7.59 1 15.18 1 23 C-3.53904366 23.02291161 -8.07788802 23.04283781 -12.61694336 23.05493164 C-14.16219766 23.0599714 -15.70744716 23.0668032 -17.25268555 23.07543945 C-19.46925029 23.08752076 -21.68575218 23.09323173 -23.90234375 23.09765625 C-24.94454323 23.10539818 -24.94454323 23.10539818 -26.00779724 23.11329651 C-27.6722933 23.11349277 -29.33665499 23.06189129 -31 23 C-32 22 -32 22 -32.11352539 19.95874023 C-32.10828857 19.08419189 -32.10305176 18.20964355 -32.09765625 17.30859375 C-32.09443359 16.36435547 -32.09121094 15.42011719 -32.08789062 14.44726562 C-32.07951172 13.45404297 -32.07113281 12.46082031 -32.0625 11.4375 C-32.05798828 10.44041016 -32.05347656 9.44332031 -32.04882812 8.41601562 C-32.03700007 5.94395151 -32.02051849 3.47200482 -32 1 C-30.68 1.33 -29.36 1.66 -28 2 C-28.33 8.27 -28.66 14.54 -29 21 C-19.43 21 -9.86 21 0 21 C0 14.07 0 7.14 0 0 Z " fill="#0065E0" transform="translate(44,16)"/>
<path d="M0 0 C6.6 0 13.2 0 20 0 C20 1.32 20 2.64 20 4 C18.35 4 16.7 4 15 4 C15 5.32 15 6.64 15 8 C10.05 8 5.1 8 0 8 C0 5.36 0 2.72 0 0 Z " fill="#FDE08E" transform="translate(58,22)"/>
<path d="M0 0 C0.87398437 0.35384766 0.87398437 0.35384766 1.765625 0.71484375 C1.765625 4.71484375 1.765625 4.71484375 -0.640625 7.29296875 C-1.66196982 8.19493561 -2.69369707 9.08525356 -3.734375 9.96484375 C-4.25902344 10.42375 -4.78367187 10.88265625 -5.32421875 11.35546875 C-6.61887044 12.48534659 -7.92551159 13.60145994 -9.234375 14.71484375 C-12.55510028 13.13487762 -14.91467335 11.63594954 -17.234375 8.71484375 C-16.984375 6.46484375 -16.984375 6.46484375 -16.234375 4.71484375 C-12.234375 4.71484375 -12.234375 4.71484375 -9.234375 6.71484375 C-8.54601562 5.93947266 -8.54601562 5.93947266 -7.84375 5.1484375 C-7.23015625 4.48972656 -6.6165625 3.83101562 -5.984375 3.15234375 C-5.38109375 2.49105469 -4.7778125 1.82976563 -4.15625 1.1484375 C-2.234375 -0.28515625 -2.234375 -0.28515625 0 0 Z " fill="#EBF1EA" transform="translate(115.234375,19.28515625)"/>
<path d="M0 0 C0.66 1.65 1.32 3.3 2 5 C0.26346561 6.70360012 -1.48685393 8.38683827 -3.25 10.0625 C-3.98669922 10.79049805 -3.98669922 10.79049805 -4.73828125 11.53320312 C-8.43495041 15.00807214 -8.43495041 15.00807214 -11.1875 14.96875 C-13.96864734 13.4822747 -15.8781423 11.29867917 -18 9 C-17.34 7.35 -16.68 5.7 -16 4 C-15.34 4 -14.68 4 -14 4 C-13.01 5.485 -13.01 5.485 -12 7 C-8.65061827 6.42727022 -7.13779587 5.4431614 -4.875 2.9375 C-2.20705882 0 -2.20705882 0 0 0 Z " fill="#EEF4EE" transform="translate(116,42)"/>
<path d="M0 0 C0.87454834 0.00523682 1.74909668 0.01047363 2.65014648 0.01586914 C3.59438477 0.0190918 4.53862305 0.02231445 5.51147461 0.02563477 C6.50469727 0.03401367 7.49791992 0.04239258 8.52124023 0.05102539 C9.51833008 0.05553711 10.51541992 0.06004883 11.54272461 0.06469727 C14.01478872 0.07652532 16.48673541 0.0930069 18.95874023 0.11352539 C18.95874023 1.10352539 18.95874023 2.09352539 18.95874023 3.11352539 C12.68874023 2.78352539 6.41874023 2.45352539 -0.04125977 2.11352539 C-0.04125977 7.39352539 -0.04125977 12.67352539 -0.04125977 18.11352539 C9.52874023 18.11352539 19.09874023 18.11352539 28.95874023 18.11352539 C28.95874023 18.44352539 28.95874023 18.77352539 28.95874023 19.11352539 C28.09071777 19.13858154 27.22269531 19.1636377 26.32836914 19.18945312 C23.11160861 19.28452023 19.89501175 19.38375742 16.6784668 19.48583984 C15.28561434 19.52918385 13.89270892 19.57085935 12.49975586 19.61083984 C10.49897373 19.66855471 8.49838165 19.73274408 6.49780273 19.79711914 C4.69110107 19.85210571 4.69110107 19.85210571 2.84790039 19.90820312 C0.01877657 19.92405526 0.01877657 19.92405526 -2.04125977 21.11352539 C-3.18071493 18.83461506 -3.1702019 17.54570435 -3.17407227 15.01586914 C-3.17536133 14.2147168 -3.17665039 13.41356445 -3.17797852 12.58813477 C-3.17411133 11.75088867 -3.17024414 10.91364258 -3.16625977 10.05102539 C-3.17012695 9.20991211 -3.17399414 8.36879883 -3.17797852 7.50219727 C-3.16617173 0.17608777 -3.16617173 0.17608777 0 0 Z " fill="#38A408" transform="translate(94.041259765625,40.886474609375)"/>
<path d="M0 0 C0.66 0 1.32 0 2 0 C1.67 0.99 1.34 1.98 1 3 C0.34 3 -0.32 3 -1 3 C-1.81786343 7.31963661 -2.14729179 11.43780716 -2.20532227 15.83154297 C-2.21522186 16.48590836 -2.22512146 17.14027374 -2.23532104 17.81446838 C-2.26666973 19.95700582 -2.29158692 22.09956535 -2.31640625 24.2421875 C-2.33699885 25.73577418 -2.3579959 27.22935534 -2.37937927 28.72293091 C-2.434362 32.63878888 -2.4838754 36.55469737 -2.53222656 40.47064209 C-2.58261626 44.47266085 -2.6382108 48.47460699 -2.69335938 52.4765625 C-2.80064949 60.31764679 -2.90215817 68.15879215 -3 76 C-3.33 76 -3.66 76 -4 76 C-4.0928022 66.97682722 -4.1638165 57.95381948 -4.20724869 48.93027306 C-4.22809718 44.73996462 -4.25636416 40.54998341 -4.30175781 36.35986328 C-4.34531419 32.31387758 -4.3691577 28.26820605 -4.37950897 24.22200394 C-4.38688286 22.68065065 -4.40128257 21.13931398 -4.42292023 19.59809494 C-4.45208611 17.43400064 -4.45595076 15.27119375 -4.45410156 13.10693359 C-4.46298401 11.87671478 -4.47186646 10.64649597 -4.48101807 9.3789978 C-3.90549119 5.33610586 -2.57279733 3.1362872 0 0 Z " fill="#1B1B1C" transform="translate(10,7)"/>
<path d="M0 0 C6.6 0 13.2 0 20 0 C20 1.32 20 2.64 20 4 C13.4 4 6.8 4 0 4 C0 2.68 0 1.36 0 0 Z " fill="#B6CDF1" transform="translate(19,44)"/>
<path d="M0 0 C6.6 0 13.2 0 20 0 C20 0.99 20 1.98 20 3 C13.4 3 6.8 3 0 3 C0 2.01 0 1.02 0 0 Z " fill="#D3E0F6" transform="translate(19,22)"/>
<path d="M0 0 C4.95 0 9.9 0 15 0 C15 0.99 15 1.98 15 3 C10.05 3 5.1 3 0 3 C0 2.01 0 1.02 0 0 Z " fill="#FCF1D1" transform="translate(58,27)"/>
<path d="M0 0 C4.95 0 9.9 0 15 0 C15 0.99 15 1.98 15 3 C10.05 3 5.1 3 0 3 C0 2.01 0 1.02 0 0 Z " fill="#D6E3F7" transform="translate(19,27)"/>
<path d="M0 0 C2.33333333 2.33333333 4.66666667 4.66666667 7 7 C9.26274788 6.64644564 10.95088852 6.02455574 13 5 C12.01783402 7.7679223 11.41782513 8.79108743 8.75 10.125 C4.98156036 9.95370729 3.70546017 8.34584496 1.13671875 5.73828125 C0 4 0 4 0 0 Z " fill="#3F8930" transform="translate(97,49)"/>
</svg>
